<svg width="64" height="64" viewBox="0 0 64 64" fill="none" xmlns="http://www.w3.org/2000/svg">
<path d="M39.9619 4.99455C52.4768 4.9946 62.6219 15.1399 62.6221 27.6547C62.6221 40.1697 52.4769 50.3148 39.9619 50.3149H24.4082C16.8642 54.3313 4.15239 60.9442 6.74609 58.4633C9.92878 55.4187 11.0236 48.1528 11.25 46.3627C5.2895 42.2804 1.37793 35.4247 1.37793 27.6547C1.37806 15.1399 11.5233 4.99468 24.0381 4.99455H39.9619Z" fill="url(#paint0_linear_2_33)"/>
<path d="M43.7403 32.1822L42.8565 20.4233V16.6568H48.2357V20.4233L47.352 32.1822H43.7403ZM45.4693 38.4904C44.4703 38.4904 43.6378 38.225 42.9718 37.6942C42.3314 37.1634 42.0112 36.5305 42.0112 35.7956C42.0112 35.0811 42.3314 34.4584 42.9718 33.9277C43.6378 33.3969 44.4703 33.1315 45.4693 33.1315C46.4683 33.1315 47.288 33.3969 47.9284 33.9277C48.5687 34.4584 48.8889 35.0811 48.8889 35.7956C48.8889 36.5305 48.5687 37.1634 47.9284 37.6942C47.288 38.225 46.4683 38.4904 45.4693 38.4904Z" fill="white"/>
<path d="M11.0693 38.0923L22.0583 16.6568H26.7074L37.658 38.0923H31.8177L29.9734 34.0195H18.7539L16.9096 38.0923H11.0693ZM23.4031 24.4654L20.5213 30.3142H28.2059L25.3242 24.4654C24.94 23.6488 24.6198 22.8322 24.3636 22.0156C24.1075 22.8935 23.7873 23.7101 23.4031 24.4654Z" fill="white"/>
<defs>
<linearGradient id="paint0_linear_2_33" x1="4.28703" y1="13.1814" x2="49.9476" y2="38.1729" gradientUnits="userSpaceOnUse">
<stop stop-color="#4E00CA"/>
<stop offset="1" stop-color="#FF00EA"/>
</linearGradient>
</defs>
</svg>
