<svg width="512" height="512" viewBox="0 0 512 512" fill="none" xmlns="http://www.w3.org/2000/svg">
<path d="M355.702 59.7136C423.633 59.7137 478.702 114.783 478.702 182.714V266.123C478.702 334.054 423.633 389.123 355.702 389.123H200.986C146.157 418.314 53.7152 466.381 72.5703 448.345C89.8595 431.808 98.6755 398.133 102.714 376.741C61.7671 356.774 33.5547 314.744 33.5546 266.123V182.714C33.5546 114.783 88.6236 59.7136 156.555 59.7136H355.702Z" fill="url(#paint0_linear_1_2)"/>
<path d="M339.712 356.125C329.538 354.531 321.537 350.15 315.711 342.983C310.145 335.856 308.025 328.067 309.349 319.614C310.637 311.397 315.02 304.747 322.499 299.664C330.239 294.623 339.196 292.899 349.371 294.494C359.545 296.088 367.415 300.449 372.981 307.575C378.546 314.702 380.685 322.374 379.397 330.591C378.073 339.044 373.671 345.811 366.192 350.893C358.714 355.976 349.887 357.72 339.712 356.125Z" fill="white"/>
<path d="M331.132 272.701L338.223 157.06L343.943 120.56L409.473 130.829L403.754 167.33L375.131 279.596L331.132 272.701Z" fill="white"/>
<path fill-rule="evenodd" clip-rule="evenodd" d="M310.72 333.654L252.419 344.349L225.997 304.051L113.998 324.595L105.016 365.234L105.101 365.253L102.692 376.73C84.5565 367.882 68.9201 354.705 57.1279 338.545L112.831 132.352L159.241 123.838L310.72 333.654ZM146.386 185.597C145.555 195.479 143.965 204.822 141.615 213.626L124.354 281.624L201.064 267.553L160.793 210.108C155.351 202.055 150.549 193.884 146.386 185.597Z" fill="white"/>
<defs>
<linearGradient id="paint0_linear_1_2" x1="54.6991" y1="119.219" x2="386.579" y2="300.868" gradientUnits="userSpaceOnUse">
<stop stop-color="#4E00CA"/>
<stop offset="1" stop-color="#FF0044"/>
</linearGradient>
</defs>
</svg>
